<svg height="316.227766" viewBox="0 0 230.00001 230" width="316.227766" xmlns="http://www.w3.org/2000/svg"><path d="m0 0c-.088.087-.186.184-.275.274.275-.548.275-.46.275-.274" fill="#fde8f1" transform="matrix(1.88045563448 0 0 -1.88045563448 34.06505002348 182.94810145088)"/><path d="m0 0c.124.154 1.131 2.284 2.51 4.685 2.439 4.251 5.71 8.213 9.664 11.219 1.41 1.071 6.243 4.642 8.16 1.746 1.039-1.792.754-4.668.151-6.685-.452-2.048-2.017-2.916-2.92-5.285-.86-1.972-.317-4.292-.482-6.504-.059-4.294.103-8.466.423-12.555.088-1.132.902-7.32 1.247-9.233.19-1.336.527-2.451.879-3.68.068-.239.281-.882.386-.942 3.377 2.728 6.722 5.513 10.213 8.056 2.673 1.949 5.432 3.756 8.352 5.285 1.032.481 2.072.948 3.12 1.392 1.04.44 2.46 1.007 3.6.752 4.119-.925 1.686-6.199.552-8.544-1.716-3.162-3.899-6.068-6.007-9.004-2.982-3.719-11.307-14.303-12.06-15.463.015-.17.739-1.623 1.26-3.047.431-1.177.666-2.332.757-2.735.105-.165.468-2.876.407-3.794.166 0-.015-.166 0-.256.021-.555.378-1.535.5-2.446.132-.989.032-1.897.072-2.102-.332-2.393-.557-4.697-1.446-6.865-.647-1.37-1.144-2.785-1.956-4.08-.059-.113-.625-1.197-1.314-2.197-.595-.863-1.327-1.664-1.351-1.717-.528-.634-1.356-1.191-1.732-1.762-.527-.903-.226-2.259-.302-3.179-.134-1.474.452-2.888-.03-4.304-.391-.723-2.41-1.386-2.71-1.551-.175-.465-.36-1.97-.713-3.42-.439-1.799-1.068-3.611-1.486-4.396-.299-.553-1.174-1.879-2.115-2.428-1.181-.692-2.467-.537-2.841-.418-.995.316-1.967 1.156-2.528 1.734-.941.966-1.631 2.669-2.384 3.884-1.1 2.225-1.523 3.284-1.815 3.914-1.054.392-2.274.587-3.026 1.597-.301.406-.404.82-.287 1.445.211.601.272.963.497 1.475-.677.181-1.701.091-2.454.226-2.318.256-4.502.754-6.835 1.114.091-.919.842-2.169-.212-2.965-.617-.407-1.068-.34-1.7-.701-.117-.066-.329-1.503-.368-1.717-.086-.464-.227-.91-.396-1.351-.281-.736-.573-1.495-.932-2.198-.75-1.46-1.924-2.659-3.668-2.674-.924-.01-1.84.322-2.582.867-1.715 1.254-2.683 3.649-3.476 5.543-.553 1.324-.795 2.438-1.045 4.112-1.13.724-2.214 1.446-2.816 2.679-.016.453-.15.86.105 1.295.242.754.708 1.417.828 2.215.061.24.558 2.574.618 3.463-1.506 1.309-2.049 3.283-2.816 5.028-.919 2.802-1.505 6.039-1.446 9.064.197.648.347 4.14.875 4.487-.574 3.433.631 6.956 2.845 9.635.136.288.497.483.511.799-.196.106-.406.287-.541.467-2.815 3.809-5.24 7.649-7.59 11.684-.196.434-2.185 3.758-3.74 7.042-1.31 2.768-2.205 5.507-2.508 6.464-.689 2.182-1.646 8.216 2.182 7.685 1.382-.192 2.804-1.147 3.945-1.929 3.374-2.315 7.445-6.265 9.499-7.961 1.922-1.588 3.89-3.012 5.522-4.288 2.127-1.662 3.682-2.53 3.816-2.496 1.1 2.288 2.049 4.653 2.816 7.077-.933 2.108-.829 4.457-.316 6.655.136.135.045.407.18.572.813 1.912 1.642 3.75 3.568 4.878.257.241.693.331 1.055.512.451.09.934.241 1.4.181.407 1.129.799 2.123 1.31 3.207z" transform="matrix(1.88045563448 0 0 -1.88045563448 106.69764890516 42.78834073513)"/><path d="m0 0c1.979 3.905 4.286 7.675 7.416 10.977.963 1.016 4.72 4.457 5.818 5.044 1.131.604 3.368 1.983 4.683 1.568.14-.045.268-.11.386-.192 2.028-1.413.952-4.403.379-6.27-.693-2.258-2.95-3.811-3.189-6.202-.139-1.399-.211-5.126-.185-8.778.011-1.782-.002-4.772.135-7.458.128-2.481.401-4.702.532-5.476.452-3.87 1.295-7.559 2.528-11.096-1.189-1.446-2.95-2.41-3.794-4.156.046-.136.166-.031.242-.047 2.981 2.741 6.159 5.407 9.29 7.846 3.086 2.409 6.203 4.697 9.546 6.73 1.971 1.235 3.914 2.395 6.037 3.388 1.461.587 3.042 1.505 4.623 1.16.587-.136 1.175-.663 1.445-1.235.287-1.867-.497-3.659-1.445-5.195-1.22-2.514-2.981-4.818-4.441-7.197-4.323-5.556-8.764-11.036-12.95-16.728-1.219-1.882-2.634-3.733-3.643-5.752.12-.135.165.106.286.075.873 1.085 1.732 2.169 2.604 3.252 1.13-1.941 1.747-4.199 2.275-6.398.179-1.34.24-2.981-.754-4.035-1.445-1.309-2.951-2.862-4.592-3.764-1.958-1.25-4.035-2.199-6.143-3.072-2.243-.979-4.683-1.852-7.153-2.454-2.175-.582-7.288-1.022-12.022-.675-4.205.306-8.113 1.335-9.403 1.894-1.326.512-2.605 1.19-3.914 1.626-2.545 1.205-5.03 2.56-7.047 4.819-1.099 1.34-2.544 2.529-2.996 4.185.18 1.974-.031 3.915.768 5.752 2.785 4.849 6.384 9.229 9.214 14.093 1.626 2.756 3.253 5.466 4.578 8.416.707 1.958 1.611 3.825 2.168 5.857 1.039-1.234 2.394-1.956 3.945-1.882 1.505.287 2.92 1.04 3.869 2.349.798-1.61 2.56-3.026 4.471-2.815 2.907.331 4.955 3.478 5.602 6.068.527 2.258.407 4.878-.859 6.865-.827 1.129-2.032 1.792-3.327 1.988-1.761.075-3.147-1.129-4.336-2.394-.331.331-.346.828-.693 1.129-.708 1.039-1.701 1.566-2.845 1.882.573 1.22 1.159 2.455 1.701 3.644z" fill="#f6a3a5" transform="matrix(1.88045563448 0 0 -1.88045563448 108.32800394025 42.44421735402)"/><path d="m0 0c-.27-.512-.407-1.19-1.008-1.581-.106.09-.271.136-.316.286.134.617.451 1.371 1.114 1.596.105-.09.15-.196.21-.301" fill="#ef523a" transform="matrix(1.88045563448 0 0 -1.88045563448 132.70435032997 25.45430069653)"/><path d="m0 0c.486-.423 1.292-.765 1.436-1.461.111-.543-.095-.542-.485-.356-.389.187-.806.369-1.146.638.334-.264 1.834-1.971.557-2.043-1.054 1.07-2.424 1.913-3.644 2.711-.22.144.532.393.601.393.489.002 1.138-.281 1.357-.742-.095.157-.135.333-.25.478-.222.283-.852.466-.791.903.051.371.495.437.786.307.541-.24 1.067-.512 1.579-.828" transform="matrix(1.88045563448 0 0 -1.88045563448 123.67252191758 45.75569972634)"/><path d="m0 0c.196-.301.271-.648.466-.934.053-.076-.652-1.198-.723-1.346-.236-.486-.451-.983-.625-1.495-.593-1.74-.765-4.054-.066-5.801 0-.076.015-.166-.031-.211-.919-1.16-2.228-2.168-3.764-2.213-1.415.029-2.755.753-3.463 2.063-1.55 3.025-.978 7.091 1.054 9.681 1.174 1.37 2.635 2.484 4.517 2.213 1.099-.271 2.003-.934 2.635-1.957" fill="#fff" transform="matrix(1.88045563448 0 0 -1.88045563448 107.98764147041 59.00539012686)"/><path d="m0 0c.38-.613.642-1.3.762-1.934.303-1.605.232-3.37-.277-4.925-.262-.803-.643-1.642-1.116-2.346-.965-1.429-2.47-2.709-4.156-2.814-1.626.014-3.192.933-3.764 2.499-1.446 3.658-.436 7.723 2.378 10.328 1.19 1.13 2.997 1.506 4.488.799.686-.326 1.259-.92 1.685-1.607" fill="#fff" transform="matrix(1.88045563448 0 0 -1.88045563448 123.58602095839 60.18631626532)"/><path d="m0 0c5.193-3.598 9.786-8.351 14.891-11.924 1.398-.979 2.319-1.853 3.689-2.274-2.469-4.411-5.134-8.792-7.95-12.904-.558-.857-1.176-1.761-1.807-2.529-.632.467-1.069 1.176-1.551 1.777-1.973 2.786-3.825 5.631-5.496 8.627-.828 1.551-1.596 2.966-2.454 4.457-1.401 2.62-2.756 5.3-3.735 8.161-.774 2.265-2.529 5.837-1.099 8.156 1.188 1.928 4.338-.844 5.512-1.547" fill="#f6a3a5" transform="matrix(1.88045563448 0 0 -1.88045563448 50.28586032648 65.60390894824)"/><path d="m0 0c.033-.042.061-.087.086-.137.387-.762.189-2.03-.3-2.693-.301-.347-.813-.678-1.295-.543-.602.287-1.008.903-.978 1.551.025.55.32 1.387.655 1.82.432.558 1.414.56 1.832.002" transform="matrix(1.88045563448 0 0 -1.88045563448 103.68891988999 65.37637381647)"/><path d="m0 0c.528-.633.512-1.551.287-2.319-.196-.406-.498-.858-.934-1.084-1.464-.758-2.121.949-1.802 2.087.157.556.562 1.387 1.154 1.603.498.179.904.029 1.295-.287" transform="matrix(1.88045563448 0 0 -1.88045563448 116.67910741296 66.48020127391)"/><path d="m0 0c.443-.369.767-.709.678-.829-.26-.347-1.479.961-1.509.758-.086-.579-.069-.769-.211-1.19-.332-2.409-1.52-4.652-2.679-6.655-1.009-1.43-2.139-3.312-5.442-5.201-2.402-1.372-4.966-1.694-6.261-1.768-1.054-.061-2.313-.037-3.342.151-1.174.213-2.662.806-3.619 1.549-.616.479-2.298 1.599-2.177 2.516.591-.036 1.205-.989 1.678-1.309-.094.064.707.583 1.466 1.457.789.906 1.544 2.177 1.736 2.937.407 1.174.813 2.619.542 3.93-.004.045-.095.374-.239.489-.427.345-1.308.689-1.612 1.061-.031.09.075.121.105.181.451-.225.675-.244 1.385-.647 1.062-.411 4.29-1.011 7.596-.582 3.726.484 7.583 2.077 9.162 2.93.287.196.678.481.903.723-.407.361-1.084.135-1.22.768.378.511.706.134 1.265-.075.172-.065 1.125-.637 1.795-1.194" transform="matrix(1.88045563448 0 0 -1.88045563448 131.20938810056 85.91094934496)"/><path d="m0 0c.436-.045.828-.301 1.114-.617.074-.286-.272-.211-.392-.317-.466.241-1.144.332-1.415.753 0 .12 0 .286.121.331.225.061.376-.271.572-.15" fill="#ef523a" transform="matrix(1.88045563448 0 0 -1.88045563448 62.99774041555 84.48744442966)"/><path d="m0 0c-.292-.054-.794.278-1.132.3-.217.013-.959.236-1.8.164-1.034-.089-2.215-.5-2.745-.795-.021-.012-1.223.573-2.599.488-1.573-.096-3.353-.909-3.899-1.244-1.339-.818-2.779-2.951-2.325-3.219-.767.451-1.67.662-2.349 1.19.233-.181 1.799 1.878 1.933 2.09.523.832 1.085 2.143 1.351 3.087.242.855.613 3.034.45 3.721 2.094-.422 4.412-.557 6.715-.256 3.388.407 6.641 1.52 9.577 3.222.301.09 1.249 1.1.828 0-.466-3.252-1.807-6.128-4.005-8.748" fill="#692d31" transform="matrix(1.88045563448 0 0 -1.88045563448 120.89884985673 103.37286036671)"/><path d="m0 0c-.075-.226-.211-.512-.361-.619-.211-.254-.317-.51-.648-.721-.166-.016-.285.059-.407.18.031.633.482 1.16 1.055 1.415.15 0 .301-.12.361-.255" fill="#ef523a" transform="matrix(1.88045563448 0 0 -1.88045563448 167.9835784884 101.61651480411)"/><path d="m0 0c.382-.031.753-.106 1.082-.257-.827-1.114-2.047-1.882-3.222-2.604-3.026-1.778-6.805-2.289-10.148-1.401.587 1.897 2.605 3.222 4.366 3.614.829.361 2.079.225 2.997.105-.588-.467-1.189-1.039-1.295-1.701.362.27.888.963 1.521 1.159.966.3 1.732.829 2.78.974.591.081 1.273.161 1.919.111" fill="#f8b9c0" transform="matrix(1.88045563448 0 0 -1.88045563448 117.8431094507 103.85237655351)"/><path d="m0 0c-.021-.012-1.224.573-2.6.488-1.572-.096-3.352-.909-3.899-1.244-1.338-.818-2.778-2.951-2.324-3.219l.587-.211c.587 1.897 2.605 3.222 4.366 3.614.828.361 2.078.225 2.997.105-.588-.467-1.19-1.039-1.295-1.701.361.27.888.963 1.52 1.159.966.3 1.733.829 2.78.974.592.081 1.275.161 1.92.111.383-.031.753-.106 1.082-.257l.543.512c-.293-.054-.794.278-1.132.3-.217.013-.959.236-1.8.164-1.033-.089-2.215-.5-2.745-.795" fill="#9f2538" transform="matrix(1.88045563448 0 0 -1.88045563448 110.2235032198 103.99529118173)"/><g fill="#ef523a"><path d="m0 0c-.045-.512-.542-.888-.964-1.083-.105.045-.451-.105-.437.151.046.42.406.812.798 1.007.196.09.453.182.603-.075" transform="matrix(1.88045563448 0 0 -1.88045563448 89.8957778111 118.7474656342)"/><path d="m0 0c.106-.558-.301-.979-.723-1.266-.165.092-.451-.195-.542.106.015.587.467 1.054.979 1.265.106-.015.271.045.286-.105" transform="matrix(1.88045563448 0 0 -1.88045563448 71.6892063581 133.75162114169)"/><path d="m0 0c-.029-.557-.151-1.129-.617-1.446-.18.014-.301.135-.316.317 0 .601.136 1.084.616 1.445.152-.047.273-.15.317-.316" transform="matrix(1.88045563448 0 0 -1.88045563448 108.38253715365 143.46229403813)"/></g><path d="m0 0c3.293-2.45 7.523-4.042 10.049-4.908 1.47-.502 5.122-1.498 9.221-1.637 2.734-.094 5.665-.113 8.281.207 2.79.342 5.219 1.045 6.664 1.635 2.048.828 4.142 1.506 6.144 2.605 2.409 1.024 4.848 2.424 6.896 4.367.692.737 1.565 1.339 2.244 2.062-.107-.436.346-.977-.077-1.341-.19-.388-1.787-1.988-3.709-3.287-2.766-1.869-6.208-3.57-7.131-3.97-.785-.25-2.989-1.223-5.652-2.011-1.167-.345-2.424-.607-3.686-.837-1.594-.289-2.998-.59-4.263-.692-2.332-.19-4.19 0-5.882.108-.745.049-3.957.348-7.454 1.296-3.496.946-7.279 2.54-9.169 3.477-2.003.992-3.855 2.213-5.556 3.9-.874.874-1.46 1.837-2.167 2.815-.061.692.089 1.25.134 1.957.478-.9 2.459-3.77 5.113-5.746" fill="#d2dc22" transform="matrix(1.88045563448 0 0 -1.88045563448 69.60942242637 155.48780782061)"/><path d="m0 0c-.813-.211-1.595-1.582-.362-1.988.558-.195 1.235.09 1.673-.029.074-.483-.365-.381-.663-.438-.964-.165-2.484.709-1.807 1.883.316.285.723.707 1.159.572" fill="#221e1f" transform="matrix(1.88045563448 0 0 -1.88045563448 88.67724255996 149.32555470643)"/><path d="m0 0c.678-.514 1.249-1.147 1.882-1.658-.346-1.476-.617-3.252.074-4.743.303-.526.664-.933 1.236-1.158.704-.278 1.49.737 2.016 1.024.331.181.691.367 1.046.111.883-.635-1.039-1.71-1.331-2.28-.617-.679-.632-1.642-.435-2.469.766-1.581 2.513-2.048 3.898-2.771 1.043-.544 6.302-1.55 6.551.647.104.935-.166 1.718-.151 2.635.004.244.341.339.526.307.293-.048.359-.262.473-.498.213-.44.377-.903.582-1.346 1.108-2.377 4.032-1.313 5.179.424.557.842.947 1.761 1.189 2.74.058.23 3.3-.045 3.651-.046 1.592-.005 3.188.085 4.736.483 1.264.18 2.53.511 3.87.752.471.113 2.284.568 4.085 1.212.761.272 3.252 1.172 5.324 2.196 1.482.736 4.006 2.383 4.457 2.66 1.506 1.024 3.027 2.198 4.337 3.508.051-1.044-.164-3.285-.586-5.226-.339-1.561-.875-2.931-1.026-3.328-.55-1.438-1.196-2.823-2.032-4.168-1.084.738-2.393.888-3.719.662-2.092-.438-3.403-2.515-4.999-3.914-.451-.588-.496-1.281-.24-1.989.4-.81 1.214-.768 1.862-1.324.23-.181.577-.588.697-.843.334-.911-.161-1.801-1.104-1.473-.878.304-1.305 1.242-2.3 1.07-.802-.141-1.441-.695-1.851-1.374-.621-1.028-.567-2.39-.515-3.55.027-.597-.094-1.924.742-2.653-2.831-.226-5.963-.302-8.778.616-.392.182-.873.347-1.296.542-.225.181-.617.241-.854.515-.161.183-.218.627-.229.644.119 1.341.376 2.756.075 4.157-.121.15-.211.451-.482.421-.09-.06-.09-.18-.136-.285.09-.468.121-1.085.076-1.582-2.952.016-5.947.678-8.899 1.265-3.674.993-7.589 2.259-10.661 4.518-2.167 1.217-3.988 3.207-5.736 5.059-.632.797-1.113 1.716-1.445 2.588-.03 0-.045 0-.075 0-.798 1.928-1.069 3.78-1.34 5.857-.227 1.431-.166 2.907-.181 4.336.467-.526 1.611-2.136 1.837-2.271" fill="#d2dc22" transform="matrix(1.88045563448 0 0 -1.88045563448 63.05415408458 154.13576021942)"/><path d="m0 0c-.467-1.715 1.355-3.283 2.965-3.434 1.281.137 2.455 1.115 3.404 1.477-.829-1.039-2.024-1.786-3.373-1.913-2.006.081-4.547 2.214-2.951 4.2.091-.074-.03-.225-.045-.33" fill="#221e1f" transform="matrix(1.88045563448 0 0 -1.88045563448 83.92157026037 151.0800198134)"/><path d="m0 0c.814-.151 1.522-.572 2.38-.617 2.002-.422 4.065-.799 6.113-1.009.672.024.15-.527.135-.799-.12-.677-.497-1.324-.858-1.941-.497-.587-.979-1.356-1.777-1.521-1.079-.225-2.15.056-2.543 1.075-.288.747-.611 1.869-1.537 2.026-.407.046-.737-.241-.934-.542-.361-.994.437-2.138-.151-3.102-.347-.57-2.05-.678-2.624-.668-.955.017-1.925.223-2.803.598-1.296.555-3.261 1.203-3.862 2.6-.286 1.024.104 2.019.873 2.74.391.558 1.113.512 1.16 1.31-.031.497-.226.859-.663 1.114-1.085.242-1.852-.766-2.741-1.219-.556-.151-.813.331-1.113.648-.633 1.355-.497 3.086-.151 4.442 3.463-2.259 7.227-3.825 11.096-5.135" fill="#a988bd" transform="matrix(1.88045563448 0 0 -1.88045563448 88.28046642109 167.5302457038)"/><path d="m0 0c-.039-.175-.191-.4-.199-.544-.12-.677-.497-1.324-.858-1.941-.497-.587-.979-1.356-1.777-1.521-1.079-.225-2.15.056-2.543 1.075-.288.747-.611 1.869-1.537 2.026-.407.046-.737-.241-.934-.542-.361-.994.437-2.138-.151-3.102-.347-.57-2.05-.678-2.624-.668-.955.017-1.925.223-2.803.598-1.296.555-3.261 1.203-3.862 2.6-.286 1.024.104 2.019.873 2.74.391.558 1.113.512 1.16 1.31-.031.497-.226.859-.663 1.114-1.085.242-1.852-.766-2.741-1.219-.556-.151-.813.331-1.113.648-.633 1.355-.497 3.086-.151 4.442l-.437.33c-.346-1.476-.617-3.252.074-4.743.303-.526.664-.933 1.236-1.158.704-.278 1.49.737 2.016 1.024.331.181.691.367 1.046.111.883-.635-1.039-1.71-1.331-2.28-.617-.679-.632-1.642-.435-2.469.766-1.581 2.513-2.048 3.898-2.771 1.043-.544 6.302-1.55 6.551.647.104.935-.166 1.718-.151 2.635.004.244.341.339.526.307.293-.048.359-.262.473-.498.213-.44.377-.903.582-1.346 1.108-2.377 4.032-1.313 5.179.424.557.842.947 1.761 1.189 2.74z" fill="#6773b6" transform="matrix(1.88045563448 0 0 -1.88045563448 104.87924830662 171.06738275225)"/><path d="m0 0c-1.4-2.47-3.214-4.496-5.502-6.227.315-.482.738.09 1.114.104-.045-1.912.316-3.959.693-5.916-.453-.813-1.371-1.084-2.139-1.446-1.535-.602-3.131-1.324-4.773-1.491-1.164.884-.631 3.059-.797 4.316-.136 1.04.455 1.98 1.331 2.506.708.422 1.036.169 1.66-.231.62-.396 1.45-.881 2.187-.478.986.54.709 1.83.136 2.56-.603.768-1.46.949-2.123 1.596-.647 1.687 1.25 2.379 2.093 3.539 1.43 1.82 4.256 2.605 6.12 1.168" fill="#a988bd" transform="matrix(1.88045563448 0 0 -1.88045563448 155.70796410653 175.5259430616)"/><path d="m0 0c2.499-1.61 5.464-2.619 8.34-3.583.739-.316.859-1.461.799-2.273-.844-.904-2.033-.964-3.147-1.191-.408-.006-1.612-.079-2.907.09-1.477.195-3.074.647-3.749.92-.562.297-2.142.84-3.485 1.683-1.244.782-2.268 1.854-2.507 2.397.783 1.838 1.295 3.69 1.371 5.781 1.611-1.594 3.403-2.859 5.285-3.824" fill="#d2dc22" transform="matrix(1.88045563448 0 0 -1.88045563448 77.21210455656 186.13359329568)"/><path d="m0 0c2.544-.518 5.016-.356 5.046-.158-.178-1.133-.65-3.512-1.985-5.024-.442-.5-1.035-1.362-1.624-1.62-.412-.181-1.425-.395-2.39.107-.847.441-1.658 1.56-1.995 2.05-.633.918-1.205 2.048-1.551 3.176-.527 1.131-.663 2.396-1.009 3.584.099-.337 2.842-1.572 5.508-2.115" fill="#f6a3a5" transform="matrix(1.88045563448 0 0 -1.88045563448 80.48973872745 200.44574112969)"/><path d="m0 0c-.154-1.33-.612-3.88-1.506-5.875-.332-.742-1.28-2.49-2.33-3.187-1.109-.739-2.333-.393-3.056.046-1.529.93-2.872 3.528-3.451 4.5-.619 1.19-1.115 2.319-1.522 3.584 2.62-.392 5.251-.574 7.845-.151 1.521.249 2.77.512 4.02 1.083" fill="#f6a3a5" transform="matrix(1.88045563448 0 0 -1.88045563448 142.44511051656 203.20813045673)"/><path d="m0 0c-.135-.09-.315-.301-.481-.12-.407.452-.724 1.083-.422 1.702.346.104.543-.108.603-.393.165-.376.225-.783.3-1.189" fill="#ef523a" transform="matrix(1.88045563448 0 0 -1.88045563448 77.88906858497 206.85809484325)"/><path d="m0 0c.994 1.054.933 2.695.754 4.035-.528 2.199-1.145 4.457-2.275 6.398-.872-1.083-1.731-2.167-2.604-3.252-.121.031-.166-.21-.286-.075 1.009 2.019 2.424 3.87 3.643 5.752 4.186 5.692 8.627 11.172 12.95 16.728 1.46 2.379 3.221 4.683 4.441 7.197.948 1.536 1.732 3.328 1.445 5.195-.27.572-.858 1.099-1.445 1.235-1.581.345-3.162-.573-4.623-1.16-2.123-.993-4.066-2.153-6.037-3.388-3.343-2.033-6.46-4.321-9.546-6.73-3.131-2.439-6.309-5.105-9.29-7.846-.076.016-.196-.089-.242.047.844 1.746 2.605 2.71 3.794 4.156-1.233 3.537-2.076 7.226-2.528 11.096-.131.774-.404 2.995-.532 5.476-.137 2.686-.124 5.676-.135 7.457-.026 3.653.046 7.38.185 8.779.239 2.391 2.496 3.944 3.189 6.202.573 1.867 1.649 4.857-.379 6.27-.118.082-.246.147-.386.192-1.315.415-3.552-.964-4.683-1.568-1.098-.587-4.855-4.028-5.818-5.044-3.13-3.302-5.437-7.072-7.416-10.977l-1.19-2.664c-.542-1.189-1.128-2.424-1.701-3.644l-.407.181c.407 1.129.799 2.123 1.31 3.206l1.121 2.738c.124.154 1.131 2.284 2.51 4.685 2.439 4.251 5.71 8.213 9.664 11.219 1.41 1.071 6.243 4.642 8.16 1.746 1.039-1.792.754-4.668.151-6.685-.452-2.048-2.017-2.916-2.92-5.285-.86-1.972-.317-4.292-.482-6.504-.059-4.294.103-8.466.423-12.555.088-1.132.902-7.32 1.247-9.233.19-1.336.527-2.451.879-3.68.068-.239.281-.882.386-.942 3.377 2.728 6.722 5.513 10.213 8.056 2.673 1.949 5.432 3.756 8.352 5.285 1.032.481 2.072.948 3.12 1.392 1.04.44 2.46 1.007 3.6.752 4.119-.925 1.686-6.199.552-8.544-1.716-3.162-3.899-6.068-6.007-9.004-2.982-3.719-11.307-14.303-12.06-15.463.015-.17.739-1.623 1.26-3.047.431-1.177.666-2.332.757-2.735.105-.165.468-2.876.407-3.794.166 0-.015-.166 0-.256z" fill="#f05b40" transform="matrix(1.88045563448 0 0 -1.88045563448 160.64980151394 148.07881262077)"/><path d="m0 0c-.574 3.433.631 6.956 2.845 9.635.136.288.497.483.511.799-.196.106-.406.287-.541.467-2.815 3.809-5.24 7.649-7.59 11.684-.196.434-2.185 3.758-3.74 7.042-1.31 2.768-2.205 5.507-2.508 6.464-.689 2.182-1.646 8.216 2.182 7.685 1.382-.192 2.804-1.147 3.945-1.929 3.374-2.315 7.445-6.265 9.499-7.961 1.922-1.588 3.89-3.012 5.522-4.288 2.127-1.662 3.682-2.53 3.816-2.496 1.1 2.288 2.049 4.653 2.816 7.077l.467-.573c-.557-2.032-1.461-3.899-2.168-5.857-1.325-2.95-2.952-5.66-4.578-8.416-2.83-4.864-6.429-9.244-9.214-14.093-.799-1.837-.588-3.778-.768-5.752zm-10.436 42.335c-1.43-2.319.325-5.891 1.099-8.156.979-2.861 2.334-5.541 3.735-8.161.858-1.491 1.626-2.906 2.454-4.457 1.671-2.996 3.523-5.841 5.496-8.627.482-.601.919-1.31 1.551-1.777.631.768 1.249 1.672 1.807 2.529 2.816 4.112 5.481 8.493 7.95 12.904-1.37.421-2.291 1.295-3.689 2.274-5.105 3.573-9.698 8.326-14.891 11.924-1.174.703-4.324 3.475-5.512 1.547" fill="#f05b40" transform="matrix(1.88045563448 0 0 -1.88045563448 59.54522387065 142.30393336729)"/><path d="m0 0c-1.084.738-2.393.888-3.719.662-2.092-.438-3.403-2.515-4.999-3.914-.451-.588-.496-1.281-.24-1.989.4-.81 1.214-.768 1.862-1.324.23-.181.577-.588.697-.843.334-.911-.161-1.801-1.104-1.473-.878.304-1.305 1.242-2.3 1.07-.802-.141-1.441-.695-1.851-1.374-.621-1.028-.567-2.39-.515-3.55.027-.597-.094-1.924.742-2.653l.541.029c-1.164.884-.631 3.059-.797 4.316-.136 1.04.455 1.98 1.331 2.506.708.422 1.036.169 1.66-.231.62-.396 1.45-.881 2.187-.478.986.54.709 1.83.136 2.56-.603.768-1.46.949-2.123 1.596-.647 1.687 1.25 2.379 2.093 3.539 1.43 1.82 4.256 2.605 6.12 1.168z" fill="#6773b6" transform="matrix(1.88045563448 0 0 -1.88045563448 156.23261122855 174.80572855359)"/><path d="m0 0c.858.467 2.153.437 2.665 1.551-.077.473-.422.373-.769.227-.143-.061-1.095-.481-1.118-.598.114.6 1.841.926 1.598 1.531-.145.363-.903-.057-1.184-.155-.608-.212-1.259-.278-1.859-.52-.247-.099-.64-.157-.823-.363-.297-.333-.007-.669.436-.589.241-.015.865.434 1.09.419-.397-.292-1.076-.634-1.368-1.031-.104-.14-.124-.408-.04-.564.157-.295.252-.192.521-.149.279.045.571.151.851.241" transform="matrix(1.88045563448 0 0 -1.88045563448 106.09026173522 47.45375116427)"/><path d="m0 0c.346-1.188.482-2.453 1.009-3.584.346-1.128.918-2.258 1.551-3.176.337-.49 1.148-1.609 1.995-2.05.965-.502 1.978-.288 2.39-.107.589.258 1.182 1.12 1.624 1.62 1.335 1.512 1.807 3.891 1.985 5.024l.935.264c-.117-.066-.329-1.503-.368-1.717-.086-.464-.227-.91-.396-1.351-.281-.736-.573-1.495-.932-2.198-.75-1.46-1.924-2.659-3.668-2.674-.924-.01-1.84.322-2.582.867-1.715 1.254-2.683 3.649-3.476 5.543-.553 1.324-.795 2.438-1.045 4.112z" fill="#f05b40" transform="matrix(1.88045563448 0 0 -1.88045563448 70.13218909275 196.46857746277)"/><path d="m0 0c-.154-1.33-.612-3.88-1.506-5.875-.332-.742-1.28-2.49-2.33-3.187-1.109-.739-2.333-.393-3.056.046-1.529.93-2.872 3.528-3.451 4.5-.619 1.19-1.115 2.319-1.522 3.584l-1.084.316c.292-.63.715-1.689 1.815-3.914.753-1.215 1.443-2.918 2.384-3.884.561-.578 1.533-1.418 2.528-1.734.374-.119 1.66-.274 2.841.418.941.549 1.816 1.875 2.115 2.428.418.785 1.047 2.597 1.486 4.396.353 1.45.538 2.955.713 3.42z" fill="#f05b40" transform="matrix(1.88045563448 0 0 -1.88045563448 142.44511051656 203.20813045673)"/></svg>